<?xml version="1.0" standalone="no"?>
<!DOCTYPE svg PUBLIC "-//W3C//DTD SVG 20010904//EN"
 "http://www.w3.org/TR/2001/REC-SVG-20010904/DTD/svg10.dtd">
<svg version="1.0" xmlns="http://www.w3.org/2000/svg"
 width="554.000000pt" height="554.000000pt" viewBox="0 0 554.000000 554.000000"
 preserveAspectRatio="xMidYMid meet">
<metadata>
Created by potrace 1.11, written by Peter Selinger 2001-2013
</metadata>
<g transform="translate(0.000000,554.000000) scale(0.100000,-0.100000)"
fill="#000000" stroke="none">
<path d="M2329 5534 c-3 -5 -5 -179 -4 -386 l1 -378 -778 0 -778 0 0 -2385 0
-2385 529 0 529 0 1 838 c0 460 0 846 0 858 1 21 2 21 331 20 l330 -1 83 -140
c447 -749 533 -893 543 -910 24 -44 329 -554 362 -606 l35 -56 624 0 c342 0
623 4 623 8 0 8 -19 44 -41 79 -18 28 -235 394 -267 450 -10 19 -51 88 -91
154 -39 65 -71 120 -71 122 0 2 -16 28 -35 58 -19 30 -35 58 -35 61 0 4 -11
21 -25 39 -14 18 -25 35 -25 39 0 5 -49 88 -395 672 -79 132 -151 254 -161
272 -11 18 -57 96 -103 174 -45 77 -79 144 -75 149 5 4 41 24 79 45 148 80
279 178 401 299 79 79 204 233 204 251 0 4 13 25 28 48 94 142 185 419 209
637 10 95 10 388 0 460 -6 46 -19 110 -42 213 -11 50 -64 184 -110 282 -177
370 -506 679 -915 859 -113 50 -272 102 -375 122 -11 2 -31 6 -45 9 -14 3 -42
8 -64 11 -21 3 -48 8 -60 10 -44 10 -413 17 -417 8z m333 -1100 c280 -48 498
-204 597 -427 40 -89 52 -148 52 -251 -1 -207 -92 -385 -264 -515 -162 -123
-340 -174 -604 -175 -68 -1 -113 -5 -114 -11 -1 -5 -2 -89 -4 -185 -1 -96 -3
-180 -4 -187 -1 -8 -68 -11 -246 -11 -203 0 -245 2 -246 14 0 8 0 228 0 489 0
261 0 493 0 515 l1 40 238 0 c130 -1 242 -1 247 -1 7 1 10 118 10 349 -1 191
1 353 3 360 6 17 224 14 334 -4z"/>
</g>
</svg>
